<?xml version="1.0" standalone="no"?>
<!DOCTYPE svg PUBLIC "-//W3C//DTD SVG 20010904//EN"
 "http://www.w3.org/TR/2001/REC-SVG-20010904/DTD/svg10.dtd">
<svg version="1.0" xmlns="http://www.w3.org/2000/svg"
 width="640.000000pt" height="640.000000pt" viewBox="0 0 640.000000 640.000000"
 preserveAspectRatio="xMidYMid meet">
<metadata>
Created by potrace 1.14, written by Peter Selinger 2001-2017
</metadata>
<g transform="translate(0.000000,640.000000) scale(0.100000,-0.100000)"
fill="#000000" stroke="none">
<path d="M1445 4560 c-115 -3 -217 -9 -227 -13 -15 -8 -217 -264 -245 -311
-15 -25 -17 -150 -3 -176 5 -10 26 -28 45 -40 19 -12 35 -26 35 -32 0 -5 -28
-44 -62 -86 -34 -42 -66 -83 -72 -91 -7 -8 -13 -90 -16 -195 l-5 -181 -80 5
c-133 8 -223 6 -235 -6 -7 -7 -111 -243 -233 -525 l-222 -514 -3 -158 c-3
-120 0 -162 10 -174 13 -17 65 -42 320 -157 152 -68 213 -81 251 -54 10 8 46
108 89 245 39 127 75 230 79 228 3 -3 25 -36 48 -75 47 -78 62 -90 119 -90 32
0 51 9 90 40 28 21 53 44 57 50 3 5 12 10 20 10 11 0 15 -43 17 -240 4 -290
-3 -276 126 -274 48 1 173 7 277 14 l190 13 119 -27 c66 -14 148 -26 183 -26
78 0 84 7 112 150 12 57 25 108 29 112 4 4 53 10 108 14 l101 7 6 -34 c45
-257 46 -259 126 -259 27 0 136 9 243 21 109 12 217 18 248 15 56 -6 404 10
446 20 30 8 44 50 44 135 0 38 3 69 8 69 4 -1 45 -57 92 -127 47 -69 96 -134
109 -144 41 -33 79 -24 240 56 84 41 156 75 161 75 6 0 10 -22 10 -49 0 -76
10 -81 148 -80 176 1 400 22 418 40 8 9 24 69 36 140 12 68 25 128 28 132 4 5
13 -22 20 -60 18 -94 25 -110 57 -126 15 -8 162 -67 325 -131 221 -86 309
-116 342 -116 35 0 109 28 352 134 168 74 314 140 324 149 21 18 21 19 64 402
21 187 35 360 35 435 l0 125 -207 208 -207 207 -140 20 c-77 11 -152 23 -167
26 l-28 6 0 163 c0 90 -4 174 -9 187 -5 13 -41 50 -80 82 l-71 58 29 34 c17
18 33 51 37 71 3 21 15 77 25 125 22 101 25 246 7 270 -7 9 -86 68 -174 132
-191 137 -147 130 -497 86 -310 -39 -297 -36 -309 -71 -5 -16 -14 -29 -19 -29
-8 0 -231 34 -439 66 -224 35 -239 32 -260 -55 -7 -28 -17 -51 -24 -51 -6 0
-27 10 -46 23 -127 85 -241 147 -270 147 -33 0 -478 -92 -537 -111 -35 -11
-43 -25 -43 -76 l0 -35 -87 8 c-98 10 -223 9 -295 -1 l-48 -7 0 40 c0 73 -7
75 -260 93 -217 15 -258 15 -272 1 -20 -20 -34 -14 -118 49 -99 75 -107 76
-395 69z m402 -162 c78 -57 142 -105 142 -108 0 -3 -37 -58 -83 -123 l-84
-118 -123 105 c-68 58 -126 106 -129 106 -3 -1 -22 -24 -43 -53 -33 -45 -36
-53 -22 -62 46 -29 481 -308 484 -310 1 -2 -49 -83 -113 -180 l-117 -177 -257
7 -257 8 -60 53 c-33 29 -97 88 -142 131 l-83 78 81 100 c44 55 84 101 87 102
4 1 72 -45 151 -103 l144 -105 38 43 c21 24 38 48 39 53 0 6 -108 83 -240 170
-132 88 -239 162 -239 165 0 3 52 73 115 155 l115 150 122 5 c67 3 169 6 227
8 l105 3 142 -103z m3481 -37 c90 -66 165 -121 168 -124 4 -4 -52 -283 -61
-296 -2 -4 -35 -29 -74 -57 -39 -27 -71 -51 -71 -54 0 -3 59 -54 131 -115
l130 -109 -166 -84 c-92 -46 -168 -82 -170 -80 -1 2 -54 79 -118 172 l-117
169 0 -141 c0 -129 -2 -142 -17 -142 -10 0 -77 -3 -149 -7 l-130 -6 -12 134
c-39 441 -38 401 -9 538 38 176 35 201 -25 201 -23 0 -28 4 -28 25 0 14 4 25
9 25 6 0 99 11 208 25 109 13 223 27 253 31 30 3 57 8 59 10 12 11 39 -6 189
-115z m-1014 9 c181 -28 332 -50 336 -50 5 0 5 -15 0 -32 -4 -18 -18 -82 -31
-141 l-22 -109 -31 6 c-17 3 -102 27 -189 53 -130 38 -160 44 -167 33 -9 -15
-23 -80 -18 -85 4 -4 56 -12 170 -26 53 -7 101 -15 106 -18 9 -6 -28 -194 -41
-207 -2 -3 -62 5 -132 16 -70 12 -129 19 -132 16 -3 -2 -2 -27 2 -55 l7 -50
189 6 c111 4 189 2 190 -3 0 -5 6 -65 13 -134 7 -69 13 -126 12 -127 -1 0 -82
5 -181 12 -99 8 -229 17 -290 21 -60 3 -121 8 -135 9 -14 2 -44 4 -66 4 l-42
1 -22 83 c-11 45 -32 122 -45 170 l-23 88 29 27 c27 25 31 37 54 197 14 94 23
180 21 191 -3 12 -2 35 4 50 5 16 14 48 20 72 11 43 12 44 48 38 20 -3 185
-29 366 -56z m-2029 7 c141 -11 150 -13 148 -32 -1 -11 -9 -132 -18 -270 -9
-137 -17 -263 -18 -280 -1 -16 0 -32 3 -34 3 -2 51 5 108 15 l102 19 1 100 c0
55 2 134 4 175 2 41 4 105 4 143 1 64 2 67 24 63 12 -3 100 -13 196 -22 l174
-17 -7 -56 c-3 -31 -17 -150 -31 -264 l-25 -208 -90 -108 -89 -108 -88 -6
c-48 -4 -172 -10 -275 -13 l-188 -7 -115 87 -115 88 0 49 c0 31 7 60 20 81 25
42 25 69 0 101 -18 23 -20 40 -20 179 0 120 3 158 15 174 19 25 19 98 0 114
-8 7 -15 23 -15 37 0 24 1 24 73 18 39 -4 140 -12 222 -18z m1162 -333 c-3 -3
-12 -4 -19 -1 -8 3 -5 6 6 6 11 1 17 -2 13 -5z m1038 -734 c261 -53 441 -91
452 -95 7 -2 11 -10 8 -17 -3 -7 -27 -139 -54 -293 -51 -287 -127 -709 -157
-871 l-17 -92 -81 -6 c-45 -3 -148 -9 -230 -12 l-149 -7 6 33 c4 18 7 48 7 66
0 27 6 36 30 49 26 13 30 21 30 57 0 31 -7 49 -25 68 l-25 26 31 509 c38 636
36 617 57 611 9 -3 62 -14 117 -26z m-492 -151 c158 -115 223 -167 225 -182 1
-12 -15 -105 -35 -206 l-38 -185 -100 -72 c-55 -40 -100 -76 -102 -81 -1 -4
68 -66 153 -138 85 -71 164 -140 176 -152 l20 -22 -225 -113 c-124 -62 -228
-110 -230 -108 -2 3 -75 108 -163 234 l-159 229 -3 -190 -2 -190 -182 -11
c-100 -6 -185 -9 -190 -6 -4 3 -8 24 -8 47 0 23 -9 71 -20 107 -23 77 -25 89
-45 330 -8 102 -17 210 -20 240 -2 30 -9 114 -15 185 -6 72 -14 163 -18 204
-5 41 -8 90 -8 110 l1 36 60 7 c33 4 76 9 95 12 19 2 132 16 250 31 118 14
238 30 265 34 28 5 60 9 73 10 14 1 102 -57 245 -160z m-1888 107 c319 -38
618 -76 620 -78 1 -2 47 -158 104 -348 56 -190 106 -356 111 -370 25 -73 141
-472 138 -476 -2 -2 -24 -6 -49 -8 -232 -26 -342 -36 -388 -39 l-54 -2 -25
140 c-13 77 -27 143 -31 148 -9 9 -333 -11 -342 -21 -4 -4 -19 -65 -34 -137
-15 -71 -28 -131 -29 -132 -1 -1 -26 4 -56 11 -30 7 -90 21 -132 30 -77 18
-78 18 -78 49 0 27 -18 170 -49 399 -6 48 -3 71 21 150 16 51 35 116 43 143
13 47 151 515 160 543 3 7 8 11 12 9 5 -3 31 -7 58 -11z m3292 -21 c65 -9 132
-18 148 -21 17 -3 59 -9 95 -14 36 -4 107 -14 158 -21 l93 -13 197 -199 198
-199 -17 -131 c-9 -73 -27 -229 -39 -347 -12 -118 -27 -220 -34 -227 -11 -12
-607 -273 -623 -273 -4 0 -78 27 -163 61 -85 33 -211 82 -280 109 -69 26 -141
55 -161 64 l-36 15 -38 195 -37 195 43 238 44 237 158 173 c88 95 163 173 168
173 4 0 61 -7 126 -15z"/>
<path d="M4973 4095 c3 -70 8 -129 10 -132 3 -2 40 4 83 14 l79 18 12 55 c6
30 12 69 12 85 1 32 -8 36 -183 83 -18 5 -19 0 -13 -123z m97 -45 c12 -8 11
-10 -7 -10 -13 0 -23 5 -23 10 0 13 11 13 30 0z"/>
<path d="M3504 2794 c4 -99 9 -180 10 -181 4 -4 216 43 222 49 7 8 45 220 40
225 -2 3 -55 19 -118 37 -62 18 -124 36 -137 41 l-24 7 7 -178z"/>
<path d="M2326 2862 c-3 -4 -20 -70 -39 -146 -24 -95 -32 -138 -24 -141 21 -5
171 -25 193 -25 l22 0 -29 118 c-54 219 -47 202 -85 202 -18 0 -35 -4 -38 -8z"/>
<path d="M5486 2737 l-169 -52 2 -85 c1 -46 4 -87 6 -90 2 -3 5 -39 6 -78 1
-40 7 -76 13 -82 18 -14 245 -92 260 -88 7 2 64 51 125 110 l113 107 -82 155
c-45 86 -87 156 -93 155 -7 0 -88 -23 -181 -52z"/>
</g>
</svg>
